<?xml version="1.0" encoding="UTF-8"?>
<!-- Created with Inkscape (http://www.inkscape.org/) -->
<svg width="666.67" height="666.67" version="1.1" viewBox="0 0 666.67 666.67" xmlns="http://www.w3.org/2000/svg">
 <g stroke="#000" stroke-width="2">
  <path d="m263.81 260.55c9.1661-22.919 14.562-46.609 17.748-70.12-43.175 0.80513-82.99 23.465-105.75 60.165s-25.371 82.437-6.8481 121.53c5.3614-4.5842 10.986-8.9799 16.92-13.122 4.778-3.3542 9.3291-6.8046 13.829-10.274 75.936 24.971 192.07 24.851 267.42-0.15993 4.3701 3.6392 8.9873 7.1424 13.837 10.547 5.7591 4.0359 11.223 8.3073 16.355 12.88 18.434-38.963 15.826-84.7-6.9368-121.4s-62.578-59.36-105.58-60.062c3.2489 23.192 8.627 46.543 17.648 68.932-44.207 6.3456-93.529 6.8106-138.63 1.0846zm-108.64-19.677c27.084-45.415 76.08-73.215 128.89-73.098 1.6282-20.589 1.9579-40.837 1.9499-59.933h-19.386c-11.126 0-20.082-8.9199-20.082-20v-27.474c0-11.08 8.9568-20 20.082-20h133.42c11.126 0 20.082 8.9199 20.082 20v27.474c0 11.08-8.9568 20-20.082 20h-19.662c5e-3 19.089 0.35592 39.33 1.872 59.923 52.669-0.10653 101.67 27.693 128.75 73.108s28.256 101.74 3.2245 148.15c22.24 25.28 35.101 55.615 35.101 88.2-2e-5 89.352-96.705 161.79-216 161.79s-216-72.434-216-161.79c0-32.4 12.716-62.576 34.641-87.966-25.063-46.645-23.892-102.97 3.1928-148.38z" fill="#297c18" stop-color="#000000"/>
  <path d="m199.84 348.84c31.491-25.709 51.573-56.094 64.116-88.201 44.95 5.6333 94.272 5.1683 138.49-1.1999 12.752 32.51 32.933 63.179 64.667 89.126-75.374 25.056-191.5 25.176-267.28 0.27524z" fill="#bfb426" stop-color="#000000"/>
 </g>
</svg>
