<?xml version="1.0" encoding="UTF-8"?>
<!-- Created with Inkscape (http://www.inkscape.org/) -->
<svg width="666.67" height="666.67" version="1.1" viewBox="0 0 666.67 666.67" xml:space="preserve" xmlns="http://www.w3.org/2000/svg"><g stroke="#000"><path d="m608.37 589.36c5.5229 21.919 26.387 64.942 26.387 64.942s32.067-38.059 30.732-67.841c-7.7092-172.02-57.864-537.57-57.864-537.57s-368.44-19.777-540.51-13.245c-29.791 1.1309-65.07 36.233-65.07 36.233s44.6 17.238 66.9 20.931c148.25 24.55 441.92 61.191 441.92 61.191s60.783 289.64 97.5 435.36z" fill="#7d4f2d" stop-color="#000000" stroke-width="2.2755"/><path d="m471.85 190.36c-3.6364-3.4138-4.4452-9.9829-2.8136-14.696 19.341-55.875 42.682-114.77 72.906-164.2 48.781 2.184 96.551 11.166 96.551 11.166s11.433 54.264 11.166 96.551c-52.083 27.974-101 48.728-164.2 72.906-4.27 1.6335-10.273 1.4051-13.607-1.724z" fill="#fbd244" stop-color="#000000" stroke-width="2.2755"/><path d="m500.15 161.73c-2.4546-2.3043-3.0005-6.7385-1.8992-9.9199 13.055-37.716 28.81-77.471 49.212-110.84 32.927 1.4742 65.172 7.5369 65.172 7.5369s7.7174 36.628 7.5369 65.172c-35.156 18.883-68.177 32.891-110.84 49.212-2.8822 1.1026-6.9346 0.94843-9.1845-1.1637z" fill="#d20606" stop-color="#000000" stroke-width="2.2778"/><g fill="#35ae01"><rect x="233.21" y="23.799" width="29.954" height="108.3" rx="28.473" ry="28.473" stop-color="#000000" stroke-width="2.2755"/><rect transform="rotate(77.9)" x="505.18" y="-568.57" width="29.885" height="115.27" rx="28.407" ry="30.308" stop-color="#000000" stroke-width="2.345"/><rect transform="rotate(77.9)" x="457.76" y="-578.7" width="29.733" height="131.33" rx="28.263" ry="34.53" stop-color="#000000" stroke-width="2.4967"/><rect x="277.76" y="14.968" width="29.782" height="125.96" rx="28.31" ry="33.116" stop-color="#000000" stroke-width="2.4471"/></g></g></svg>
