<?xml version="1.0" encoding="UTF-8"?>
<svg width="666.67" height="666.67" version="1.1" viewBox="0 0 666.67 666.67" xml:space="preserve" xmlns="http://www.w3.org/2000/svg"><g transform="matrix(1.0623 0 0 1.0623 -25.19 -17.774)" stroke="#000"><g><path d="m560.01 616.93c1.7359 8.8354 5.8549 12.945 13.944 15.035 5.8393 1.5089 73.624 15.57 76.224 8.7412 2.5999-6.8291-45.285-32.731-51.562-42.308zm-509.66-508.93c-8.8354-1.7359-12.945-5.8549-15.035-13.944-1.5089-5.8393-15.57-73.624-8.7413-76.224s32.731 45.285 42.308 51.562z" fill="#c92626" stop-color="#000000" stroke-linecap="round" stroke-linejoin="bevel" stroke-width="2"/><path d="m560.01 577.57h33.714c-0.12226 9.1375 1.2337 15.252 4.8915 20.833l-38.606 18.531zm-470.3-469.57v-33.714c-9.1375 0.12225-15.252-1.2337-20.833-4.8915l-18.531 38.606z" fill="#edc899" stop-color="#000000" stroke-linejoin="bevel" stroke-width="2"/><g stroke-linecap="round" stroke-width="2"><path d="m560.01 577.57c-9.7986-105.33-28.241-201.37-78.857-262.86l51.714-51.714c73.393 90.133 67.98 204.02 60.857 314.57zm-470.3-469.57c105.33 9.7986 201.37 28.241 262.86 78.857l51.714-51.714c-90.133-73.393-204.02-67.98-314.57-60.857z" fill="#6b370b" stop-color="#000000"/><path d="m539.47 233.06c6.4637 6.4637 5.3599 17.975-2.4749 25.809l-60.104 60.104c-7.8348 7.8348-19.346 8.9385-25.809 2.4749-6.4637-6.4637-5.3599-17.975 2.4749-25.809l60.104-60.104c7.8347-7.8347 19.346-8.9385 25.809-2.4749zm-105.18-104.58c6.4637 6.4637 5.3599 17.975-2.4749 25.809l-60.104 60.104c-7.8348 7.8347-19.346 8.9385-25.809 2.4749-6.4637-6.4637-5.3599-17.975 2.4749-25.809l60.104-60.104c7.8347-7.8347 19.346-8.9385 25.809-2.4749z" fill="#005ca2" stop-color="#000000"/><path d="m379.59 206.51 44.478-44.478 81.607 81.49-44.536 44.536z" fill="#ba693a" stop-color="#000000"/></g><path d="m86.632 581.38 473.38 9.2279v18.827l-491.85-9.5879" fill="#edc899" stop-color="#000000" stroke-linecap="square" stroke-linejoin="bevel" stroke-width="1.8827"/></g><g transform="matrix(-.94135 0 0 -.94135 779.89 513.06)" stroke-linecap="round" stroke-width="2"><g><rect transform="rotate(-45)" x="-102.13" y="456.93" width="674.4" height="25" fill="#d3993c" stop-color="#000000" stroke-linejoin="bevel"/><path d="m631.74 14.457 11.835-62.843 6.8699 26.983 13.516-71.774 11.822 46.435 11.807-62.695 6.9175 27.17 14.06-74.662 19.189 75.369-83.599 83.599z" fill="#fff" fill-opacity=".99313" stop-color="#000000"/><path d="m649.42 32.134 62.843-11.835-26.983-6.8699 71.774-13.516-46.435-11.822 62.695-11.807-27.17-6.9175 74.662-14.06-75.369-19.189-83.599 83.599z" fill="#fff" fill-opacity=".99313" stop-color="#000000"/></g><g><rect transform="rotate(-45)" x="-161.16" y="456.93" width="80" height="25" fill="#cad6d4" stop-color="#000000" stroke-linejoin="bevel"/><path class="UnoptimicedTransforms" d="m192.84 350.11 43.174 77.748 77.748 43.174-175.62 54.699z" fill="#cad6d4" stop-color="#000000"/><path d="m138.14 525.73 97.872-97.872" fill="#dbe0e3" stop-color="#000000"/></g></g><path d="m68.165 599.85-9.5879-491.85h18.827l9.2279 473.38" fill="#edc899" stop-color="#000000" stroke-linecap="square" stroke-linejoin="bevel" stroke-width="1.8827" style="paint-order:normal"/></g></svg>
