<?xml version="1.0" encoding="UTF-8"?>
<!-- Created with Inkscape (http://www.inkscape.org/) -->
<svg width="666.67" height="666.67" version="1.1" viewBox="0 0 666.67 666.67" xml:space="preserve" xmlns="http://www.w3.org/2000/svg"><g stroke="#000"><path d="m29.354 271.32c-10.998-8.8168-18.17-22.617-18.17-38.092 2e-6 -27.069 21.944-49.013 49.013-49.013 22.985 0 129.21 84.557 183.03 59.519 83.424-47.276 275.19-150.11 275.19-150.11 11.218-6.0675 23.831-9.4454 37.233-9.4454 43.105 0 78.049 34.944 78.049 78.049 0 13.249-3.3012 25.727-9.344 37.044 0 0-156.87 287.06-171.08 313.03-30.947 56.605-91.086 95.015-160.2 95.015-100.8 0-182.52-81.717-182.52-182.52 11.852-73.616-45.512-120.18-81.215-153.48z" fill="#b5ad83" stop-color="#000000" stroke-width="2"/><g stroke-width="2"><circle cx="223.08" cy="497.27" r="32.584" stop-color="#000000"/><circle cx="321.03" cy="497.27" r="32.584" stop-color="#000000"/><circle cx="269.36" cy="414.52" r="32.584" stop-color="#000000"/><circle cx="358.42" cy="414.52" r="32.584" stop-color="#000000"/><circle cx="365.12" cy="258.42" r="32.584" stop-color="#000000"/><circle cx="439.59" cy="216.33" r="32.584" stop-color="#000000"/><circle cx="514.05" cy="172.43" r="32.584" stop-color="#000000"/></g><path d="m61.933 238.01c-7.0342 10.536 77.559 108.23 88.579 108.23s50.664-58.694 45.342-67.913-126.89-50.855-133.92-40.319z" fill="#61d45d" stop-color="#000000" stroke-width="2.29"/></g></svg>
