<?xml version="1.0" encoding="UTF-8"?>
<!-- Created with Inkscape (http://www.inkscape.org/) -->
<svg width="666.67" height="666.67" version="1.1" viewBox="0 0 666.67 666.67" xmlns="http://www.w3.org/2000/svg">
 <g stroke="#000" stroke-width="2">
  <g fill="#e0c62e">
   <path d="m316.09 131.17v-36.076h34.901v36.116z" stop-color="#000000"/>
   <path d="m207.13 180.21-23.189-27.636 26.736-22.434 23.215 27.667z" stop-color="#000000"/>
   <path d="m433.68 157.1 23.189-27.636 26.736 22.434-23.215 27.667z" stop-color="#000000"/>
  </g>
  <path d="m363.98 638.6c0 14.992-13.669 27.062-30.648 27.062-16.979 0-30.602-12.07-30.648-27.062l-0.50178-161.11c-84.01-14.742-147.85-88.065-147.85-176.3 0-98.859 80.141-179 179-179s179 80.141 179 179c0 88.282-63.909 161.64-148.17 176.34z" fill="#ae4f9e" stop-color="#000000"/>
  <circle cx="333.33" cy="301.2" r="140" fill="#d4abd0" stop-color="#000000"/>
  <path d="m333.33 207.24-55.093 95.182 55.093 92.781 55.093-92.781z" fill="#bb0b1e" stop-color="#000000"/>
  <path d="m302.68 575.93h61.297v45.37h-61.297z" fill="#e0c62e" stop-color="#000000"/>
  <g fill="#bb0b1e">
   <path d="m333.33 2.19-51.326 100h102.65z" stop-color="#000000"/>
   <path d="m136.43 67.017 24.961 109.6 78.636-65.984z" stop-color="#000000"/>
   <path d="m531.09 66.332-103.6 43.613 78.636 65.984z" stop-color="#000000"/>
  </g>
 </g>
</svg>
