<?xml version="1.0" encoding="UTF-8"?>
<!-- Created with Inkscape (http://www.inkscape.org/) -->
<svg width="666.67" height="666.67" version="1.1" viewBox="0 0 666.67 666.67" xml:space="preserve" xmlns="http://www.w3.org/2000/svg"><g transform="matrix(.99412 .99412 -.99412 .99412 333.64 -329.72)"><g fill-rule="evenodd"><path d="m333.33 318.59-39.156 0.0336v-244.73c3.0664-25.081 22.411-59.535 39.156-73.896" fill="#c7d2df" stop-color="#000000"/><path d="m333.33 6.3711e-7c16.745 14.361 36.09 48.815 39.156 73.896v244.51l-39.212-0.0842" fill="#7a97b4" stop-color="#000000"/><path d="m358.93 451.59v-109.54l5.5644 6.851c-0.94686 1.8342-1.4301 3.853-1.4301 5.9111v86.357m-55.328 10.769v-109.89l-5.5315 6.9156c0.93621 1.8636 1.3972 3.8364 1.3972 5.8465v86.357" fill="#7a97b4" stop-color="#000000"/><path d="m307.74 451.59v-96.572c0-4.4389-1.9178-6.1002-5.5315-6.0473-1.4669-2.9215-4.1705-5.4584-8.0278-7.0049v-28.372c6.7108-3.6008 12.231-8.3315 16.265-14.4v-225.8c0.90361-19.992 11.791-38.305 22.891-47.791 11.101 9.4866 21.988 27.799 22.891 47.791v225.8c4.0341 6.0681 9.5543 10.799 16.265 14.45v28.321c-3.8013 1.524-6.4822 4.01-7.995 6.9403-3.6466 0.0117-5.5644 1.673-5.5644 6.1119v96.572" fill="#cbe8fe" stop-color="#000000"/></g><g fill="none"><path d="m303.6 441.18v-86.357c0-2.0102-0.461-3.9829-1.3972-5.8465-1.4669-2.9215-4.1705-5.4584-8.0278-7.0049v-268.07c3.0664-25.081 22.411-59.535 39.156-73.896 16.745 14.361 36.09 48.815 39.156 73.896v268.07c-3.8013 1.524-6.4822 4.01-7.995 6.9403-0.94686 1.8342-1.4301 3.853-1.4301 5.9111v86.357" stop-color="#000000" stroke="#000" stroke-width="2"/><g stroke="#7a97b4" stroke-width="3"><path d="m319.04 333.71 14.289-25.388 14.289 25.388z" stop-color="#000000"/><path d="m340.9 321.27h-15.128l7.5638 12.439z" stop-color="#000000" stroke-linejoin="bevel"/><path d="m336.06 348.48v-11.002h18.054c-3.1285-5.7321-6.257-11.464-9.3854-17.196h10.702m-24.816 28.198v-11.002h-18.054c3.1285-5.7321 6.257-11.464 9.3854-17.196h-10.702" stop-color="#000000"/></g></g></g><g fill-rule="evenodd" stroke="#000" stroke-width="2.8118"><path d="m2.2612 664.41 21.263-62.039c9.1753 3.7184 17.693 9.4204 24.524 16.252 6.8314 6.8314 12.533 15.349 16.252 24.524z" fill="#1a4baf" stop-color="#000000"/><path d="m165.46 530.74c-6.1861-3.4245-11.967-7.7509-16.877-12.661-4.8812-4.8812-9.1858-10.623-12.63-16.822l-108.77 108.75c3.4525 6.1699 7.7571 11.912 12.638 16.793 4.9098 4.9098 10.691 9.2362 16.869 12.69z" fill="#1f337e" stop-color="#000000" stroke-linecap="square"/><path d="m23.524 602.37c3.7184 9.1753 9.4204 17.693 16.252 24.524 6.8314 6.8314 15.349 12.533 24.524 16.252l-62.039 21.263z" fill="#3f74e2" stop-color="#000000" stroke-linejoin="bevel"/></g><g transform="matrix(.99412 .99412 -.99412 .99412 333.64 -329.72)"><path d="m293.37 459.84c-4.0022 0.33292-5.9893 1.2646-9.2369 3.012-1.8929-13.472-11.354-33.898-20.683-41.165-25.467 2.921-47.231 10.417-66.265 21.285 33.037 12.266 57.237 34.3 75.904 62.45 8.9728-8.3802 17.912-16.791 33.534-19.076l-10.643 17.269c8.6057 10.147 23.543 15.863 37.349 15.863s28.743-5.7165 37.349-15.863l-10.643-17.269c15.622 2.2853 24.561 10.696 33.534 19.076 18.667-28.15 42.866-50.183 75.904-62.45-19.034-10.868-40.798-18.364-66.265-21.285-9.3288 7.2665-18.79 27.693-20.683 41.165-3.2476-1.7475-5.2347-2.6791-9.2369-3.012" fill="#3f74e2" fill-rule="evenodd" stop-color="#000000" stroke="#000" stroke-width="2"/><path d="m241.98 425.41c16.124 13.291 28.678 27.721 39.51 46.061 3.8812-1.965 7.2338-3.5433 15.374-4.8231l3.1399 4.0647c-8.9227 1.4028-13.917 3.8909-18.293 6.1608l-2.1289 1.1055-1.1914-2.082c-10.671-18.646-25.741-35.627-42.041-49.064zm-24.438 7.7159c10.97 5.6526 20.38 11.89 30.696 20.767 10.672 9.1841 20.669 20.191 29.188 34.174 7.2635-4.4487 13.138-8.4408 29.425-10.895l4.6392 3.3078c-17.005 2.5625-25.256 8.1973-33.564 13.134l-2.1641 1.2871-1.2715-2.1758c-8.4813-14.527-18.602-25.651-29.514-35.041-9.8514-8.4782-22.847-16.354-33.639-21.915zm207.15-7.7159c-16.124 13.291-28.678 27.721-39.51 46.061-3.8812-1.965-7.2338-3.5433-15.374-4.8231l-3.1399 4.0647c8.9227 1.4028 13.917 3.8909 18.293 6.1608l2.1289 1.1055 1.1914-2.082c10.671-18.646 25.741-35.627 42.041-49.064zm24.438 7.7159c-10.97 5.6526-20.38 11.89-30.696 20.767-10.672 9.1841-20.669 20.191-29.188 34.174-7.2635-4.4487-13.138-8.4408-29.425-10.895l-4.6392 3.3078c17.005 2.5625 25.256 8.1973 33.564 13.134l2.1641 1.2871 1.2715-2.1758c8.4813-14.527 18.602-25.651 29.514-35.041 9.8514-8.4782 22.847-16.354 33.639-21.915z" color="#000000" fill="#1f337e" fill-rule="evenodd" style="-inkscape-stroke:none"/><path d="m263.45 421.69c-25.467 2.921-47.231 10.417-66.265 21.285m272.29 0c-19.034-10.868-40.798-18.364-66.265-21.285" fill="none" stop-color="#000000" stroke="#000" stroke-width="2"/></g><g fill-rule="evenodd" stroke="#000" stroke-width="2.8118"><path d="m200.17 425.57s-2.7975-19.148-6.67-20.67c-3.8725-1.5218-21.176 5.4388-25.352 14.173-9.9007 20.705-1.6298 54.664 11.578 67.872 13.208 13.208 47.166 21.479 67.872 11.578 8.7345-4.1766 15.695-21.48 14.173-25.352-1.5218-3.8725-20.67-6.6699-20.67-6.6699" fill="#3e75e3" stop-color="#000000"/><path d="m189.51 434.84c23.376-23.376 57.537-33.718 75.058-32.739 0.9794 17.521-9.3621 51.682-32.739 75.058-19.309 19.309-43.717 1.3977-43.717 1.3977s-17.911-24.408 1.3977-43.717z" fill="#0070fe" stop-color="#000000"/><path d="m242.61 424.06c1.0475 30.63-14.641 51.281-45.913 45.913-5.3676-31.272 15.283-46.961 45.913-45.913z" fill="#f5780e" stop-color="#000000"/></g></svg>
