<?xml version="1.0" encoding="UTF-8"?>
<svg width="666.67" height="666.67" version="1.1" viewBox="0 0 666.67 666.67" xml:space="preserve" xmlns="http://www.w3.org/2000/svg"><g><rect transform="rotate(-50.159)" x="-503.53" y="391.87" width="760" height="75.591" rx="100" ry="100" fill="#63646a" stop-color="#000000" stroke="#000" stroke-linecap="round" stroke-linejoin="bevel" stroke-width="2"/><path transform="rotate(-50.159)" d="m-114.78 467.46h-288.75c-5.871 0-11.621-0.18931-17.209-0.55273m305.96 0.55273-0.21185-75.591h-288.54c-6.4186 0-12.692 0.22627-18.768 0.65896l1.5594 74.379" fill="#743b01" stop-color="#000000" stroke="#000" stroke-linecap="round" stroke-linejoin="bevel" stroke-width="2"/><path class="UnoptimicedTransforms" d="m560.69 124.18-71.721 10.371-24.601-20.632-24.378-20.433-50.334-17.356-10.314-56.666-114.82 136.83 57.596 0.31727 21.239 43.542 58.105 48.35-6.6585 70.922z" fill="#a8adb2" stroke="#c2c9ce"/></g><g stroke="#000" stroke-linecap="round" stroke-width="2"><path class="UnoptimicedTransforms" d="m560.69 124.18-71.721 10.371-24.601-20.632-24.378-20.433-50.334-17.356-10.314-56.666" fill="none" stop-color="#000000"/><path class="UnoptimicedTransforms" d="m264.53 156.29 57.596 0.31727 21.239 43.542 58.105 48.35-6.6585 70.922" fill="none" stop-color="#000000"/><path transform="rotate(39.841)" d="m510.07-263.86c4.5594-4.9136 11.08-7.9796 18.342-7.9796h100c13.85 0 25 11.15 25 25v225c0 13.85-11.15 25-25 25h-100c-8.4095 0-15.824-4.1107-20.351-10.441" fill="#c2c9ce" stop-color="#000000" stroke-linejoin="bevel"/><path d="m264.53 156.29-45.932-155.13 160.75 18.297" fill="#c2c9ce" stop-color="#000000"/></g></svg>
