<?xml version="1.0" encoding="UTF-8"?>
<svg width="666.67" height="666.67" version="1.1" viewBox="0 0 666.67 666.67" xmlns="http://www.w3.org/2000/svg">
 <path d="m91.549 416.2 73.944-372.54 167.84-43.662 167.84 43.662 73.944 372.54-241.78 250.47z" fill="#b41a1a" stop-color="#000000" stroke="#000" stroke-linecap="square" stroke-linejoin="round" stroke-width="2"/>
 <path d="m161.95 383.45 55.267-278.44 116.12-30.207 116.12 30.207 55.267 278.44-171.39 177.54z" fill="#7d9bb8" stop-color="#000000" stroke="#000" stroke-linecap="square" stroke-linejoin="round" stroke-width="2"/>
 <g fill="#fff" stroke="#000" stroke-linejoin="round" stroke-width="2">
  <g stroke-linecap="square">
   <path d="m266.67 448.31c32.233-6.5804 52.339-25.253 66.667-58.802 14.327 33.549 34.434 52.221 66.667 58.802-4.8997 32.302-36.916 58.889-66.667 65.918-29.75-7.0287-61.767-33.615-66.667-65.918z" stop-color="#000000"/>
   <path d="m317.92 327.17c0.11277-7.3196 15.41-15.647 15.41-15.647s15.297 8.3276 15.41 15.647c0.11646 7.5597-15.41 16.643-15.41 16.643s-15.527-9.0833-15.41-16.643z" stop-color="#000000"/>
   <path d="m314.79 286.91c-7.7679-4.335-12.569-14.329-19.915-19.346-11.067-7.5585-21.93-9.8784-35.989-17.923 14.916-2.7642 32.163-5.1614 45.661-13.514 6.5046-4.0248 8.9009-13.18 15.647-16.785 7.2863-2.2579 19.645-3.2418 26.268 0 6.7463 3.605 9.1426 12.76 15.647 16.785 13.498 8.3521 30.745 10.749 45.661 13.514-14.059 8.0448-24.922 10.365-35.989 17.923-7.3458 5.0171-12.147 15.011-19.915 19.346-7.9972 3.6243-30.217 3.5133-37.079 0z" stop-color="#000000"/>
   <path d="m275.53 236.56c-18.829 4.9781-41.193-3.5117-42.105-23.471 23.802 5.5247 62.516 13.597 61.593-23.358 0.92246-36.955-37.791-28.883-61.593-23.358 0.91266-19.959 23.276-28.449 42.105-23.471 22.936 6.0638 31.273 30.583 57.8 30.583s34.864-24.519 57.8-30.583c18.829-4.9781 41.193 3.5117 42.105 23.471-23.802-5.5247-62.516-13.597-61.593 23.358-0.92246 36.955 37.791 28.883 61.593 23.358-0.91266 19.959-23.276 28.449-42.105 23.471-22.936-6.0638-31.273-30.583-57.8-30.583s-34.864 24.519-57.8 30.583z" stop-color="#000000"/>
   <path d="m264.01 135.14c12.014-16.655 25.873-13.42 37.98-21.479 11.008-7.3284 6.1364-24.324 31.342-24.324s20.334 16.996 31.342 24.324c12.107 8.0598 25.966 4.8244 37.98 21.479-32.129-4.7482-50.453 31.721-69.322 31.721s-37.193-36.469-69.322-31.721z" stop-color="#000000"/>
   <path transform="matrix(-1 0 0 1 666.67 0)" d="m281.79 191.89a23.329 17.639 0 0 1-23.329 17.639 23.329 17.639 0 0 1-23.329-17.639 23.329 17.639 0 0 1 23.329-17.639 23.329 17.639 0 0 1 23.329 17.639zm103.08 0a23.329 17.639 0 0 0 23.329 17.639 23.329 17.639 0 0 0 23.329-17.639 23.329 17.639 0 0 0-23.329-17.639 23.329 17.639 0 0 0-23.329 17.639z" stop-color="#000000"/>
  </g>
  <path transform="matrix(-1 0 0 1 666.67 0)" d="m232.99 301.5a9 9 0 0 0-6.4277 2.4805 9 9 0 0 0-0.31055 12.725s22.374 23.494 31.457 33.033a9.0009 9.0009 0 0 0 2.3574 1.7754c10.42 5.4318 20.945 3.235 28.975 2.6192 4.0147-0.30792 7.4524-0.35365 9.6562 0.043 2.2038 0.39662 2.9047 0.80862 3.7617 1.8789 3.1821 3.9738 4.5958 10.513 3.7832 18.025-0.81254 7.5121-3.8806 15.582-7.627 21.041-4.4781 6.5255-11.93 13.022-19.967 17.051-7.193 3.6059-14.588 5.0304-20.83 4.1465-19.097-20.055-62.291-65.414-62.291-65.414a9 9 0 0 0-12.723-0.3125 9 9 0 0 0-0.3125 12.725s46.506 48.839 64.439 67.672a9.0009 9.0009 0 0 0 4.3633 2.5332c12.153 2.9974 24.597 0.16776 35.42-5.2578 10.823-5.4256 20.273-13.53 26.742-22.957 5.666-8.2565 9.5218-18.586 10.68-29.291 1.1579-10.705-0.41142-22.202-7.627-31.213-3.9123-4.8856-9.561-7.4308-14.623-8.3418-5.062-0.911-9.8066-0.61409-14.223-0.27539-8.1744 0.62695-14.911 0.87201-18.359-0.37109-9.757-10.246-30.018-31.523-30.018-31.523a9 9 0 0 0-6.2969-2.791zm200.69 0a9 9 0 0 0-6.2969 2.791s-20.259 21.277-30.016 31.523c-3.4484 1.2433-10.187 0.99807-18.361 0.37109-4.4161-0.3387-9.1587-0.63561-14.221 0.27539-5.062 0.911-10.713 3.4562-14.625 8.3418-7.2155 9.0107-8.7849 20.508-7.627 31.213s5.0137 21.035 10.68 29.291c6.4692 9.4269 15.919 17.531 26.742 22.957 10.823 5.4256 23.267 8.2552 35.42 5.2578a9.0009 9.0009 0 0 0 4.3633-2.5332c17.933-18.833 64.439-67.672 64.439-67.672a9 9 0 0 0-0.31055-12.725 9 9 0 0 0-12.725 0.3125s-43.192 45.359-62.289 65.414c-6.2427 0.88452-13.638-0.54023-20.832-4.1465-8.0371-4.029-15.489-10.525-19.967-17.051-3.7463-5.4591-6.8124-13.529-7.625-21.041-0.81254-7.5121 0.59913-14.052 3.7812-18.025 0.85706-1.0703 1.5579-1.4823 3.7617-1.8789 2.2038-0.39661 5.6415-0.35088 9.6562-0.043 8.0295 0.61583 18.557 2.8126 28.977-2.6192a9.0009 9.0009 0 0 0 2.3574-1.7754c9.0833-9.539 31.455-33.033 31.455-33.033a9 9 0 0 0-0.31055-12.725 9 9 0 0 0-6.4277-2.4805z" color="#000000" stroke-linecap="round"/>
 </g>
</svg>
