<?xml version="1.0" encoding="UTF-8"?>
<!-- Created with Inkscape (http://www.inkscape.org/) -->
<svg width="666.67" height="666.67" version="1.1" viewBox="0 0 666.67 666.67" xml:space="preserve" xmlns="http://www.w3.org/2000/svg"><g stroke="#000" stroke-width="2"><path d="m128.56 199.51c-10.874-10.874-11.734-34.131-5.3041-49.39 6.0457-14.348 22.198-23.255 36.721-28.868 15.586-6.0247 50.001-3.5797 50.001-3.5797v-23.943c0-27.7 22.3-50 50-50h145.65c27.7 0 50 22.3 50 50v479.22c0 27.7-22.3 50-50 50h-145.65c-27.7 0-50-22.3-50-50v-295.81s-77.241-73.454-81.417-77.631z" fill="#882e00" stop-color="#000000"/><path d="m434.03 495.73c49.685 0 68.173-30.325 0-81.952v-22.436c49.685 0 68.173-30.306 0-82.032v-148.2c0-27.7-22.3-50-50-50h-101.39c-27.7 0-50 22.3-50 50v148.2c-68.173 51.796-49.685 82.032 0 82.032v22.436c-68.173 51.645-49.685 81.952 0 81.952v22.284c-68.173 51.727-50.82 82.101-1.135 82.101h203.66c49.685 0 67.038-30.278-1.135-82.101z" fill="#b9bca5" stop-color="#000000"/><path d="m331.95 156.48c-6.6604 0.081-54.454 87.874-53.704 93.056s52.241 52.799 55.556 52.778c3.3146-0.0212 53.861-47.133 54.63-53.241s-49.821-92.674-56.481-92.593z" fill="#e83355" stop-color="#000000"/></g></svg>
