<?xml version="1.0" encoding="UTF-8"?>
<svg width="160" height="160" version="1.1" viewBox="0 0 160 160" xml:space="preserve" xmlns="http://www.w3.org/2000/svg"><g transform="matrix(1.1233 0 0 1.1233 -9.8665 -9.3761)" stroke="#000" stroke-linecap="square" stroke-linejoin="round" stroke-width="1.7804"><path d="m108.85 123.8 1.8064 25.548h-61.363l1.8065-25.548-19.309 7.2801c-13.549-12.828-22.004-30.964-22.004-51.075 6e-7 -38.78 31.437-70.217 70.217-70.217 38.78-6e-7 70.217 31.437 70.217 70.217 0 20.139-8.4784 38.298-22.061 51.102z" fill="#dbca32" stop-color="#000000"/><path transform="rotate(24.017)" d="m95.082 60.897a14.903 20 0 0 1-14.903 20 14.903 20 0 0 1-14.903-20 14.903 20 0 0 1 14.903-20 14.903 20 0 0 1 14.903 20zm32.775-14.604a20 14.903 41.966 0 0 24.836 2.2928 20 14.903 41.966 0 0-4.9051-24.455 20 14.903 41.966 0 0-24.836-2.2928 20 14.903 41.966 0 0 4.9051 24.455z" stop-color="#000000"/></g></svg>
