<?xml version="1.0" encoding="UTF-8"?>
<svg width="666.67" height="666.67" version="1.1" viewBox="0 0 666.67 666.67" xml:space="preserve" xmlns="http://www.w3.org/2000/svg"><g transform="matrix(.87075 .50273 -.50273 .87075 149.38 -98.482)" stroke="#000" stroke-linecap="square" stroke-linejoin="bevel"><path d="m553.38 150.36s41.126 117.27 26.804 174.27c-17.257 68.679-58.934 152.91-127.71 169.77-98.014 24.026-207.28-53.97-273.26-130.34-48.734-56.411-65.939-213.7-65.939-213.7l26.367 6.1229s16.645 141.02 60.292 191.98c59.086 68.985 156.51 139.82 243.06 119.19 60.73-14.48 96.865-89.54 111.52-150.89 12.165-50.919-25.295-156.31-25.295-156.31z" fill="#fff" stop-color="#000000" stroke-width="1.9892"/><g stroke-width="2"><path transform="rotate(-45 93.296 110.15)" d="m199.55 133.15v39.139s-39.155 10.187-60.278 10.187-60.278-10.187-60.278-10.187l-1e-6 -39.139m330.77 210.21h-39.139s-10.187 39.155-10.187 60.278 10.187 60.278 10.187 60.278h39.139" fill="#59221d" stop-color="#000000"/><path d="m407.16 628.83c0-7.0445-23.313-320.25-23.313-320.25l163.87-163.87-73.932-73.932-140.45 140.45-140.45-140.45-73.932 73.932 163.87 163.87s-23.313 313.2-23.313 320.25c-1e-5 14.244 24.528 37.832 73.824 37.832 49.296-1e-5 73.824-23.588 73.824-37.832z" fill="#895327" stop-color="#000000"/><path d="m388.99 377.91s18.167 243.88 18.167 250.92c0 14.244-24.528 37.832-73.824 37.832-49.296 0-73.824-23.588-73.824-37.832 0-7.0445 18.167-250.92 18.167-250.92z" fill="#452000" stop-color="#000000"/><path transform="matrix(-.70711 -.70711 -.70711 .70711 717.23 98.232)" d="m139.27 83.821c-21.123 0-60.278 10.187-60.278 10.187l1e-6 78.277s39.155-10.187 60.278-10.187 60.278 10.187 60.278 10.187v-78.277s-39.155-10.187-60.278-10.187zm319.82 319.82c0 21.123-10.187 60.278-10.187 60.278h-78.277s10.187-39.155 10.187-60.278-10.187-60.278-10.187-60.278h78.277s10.187 39.155 10.187 60.278z" fill="#b23225" stop-color="#000000"/></g></g></svg>
